<?xml version="1.0" encoding="utf-8"?>
<!-- Generator: Adobe Illustrator 19.2.1, SVG Export Plug-In . SVG Version: 6.00 Build 0)  -->
<svg version="1.1" id="layer" xmlns="http://www.w3.org/2000/svg" xmlns:xlink="http://www.w3.org/1999/xlink" x="0px" y="0px"
	 viewBox="0 0 652 652" style="enable-background:new 0 0 652 652;" xml:space="preserve">
<style type="text/css">
	.st0{fill:#EE3322;}
</style>
<path id="BuzzFeed_on_White" class="st0" d="M20.6,372.8V269.2h46.2c19.7,0,29.8,12.6,29.8,26.4c0,12.9-8.1,21.7-17.9,23.8
	c11.2,1.7,19.9,12.4,19.9,25.3c0,15.7-10.3,28.1-30.1,28.1H20.6L20.6,372.8z M74.2,299.5c0-6.4-4.6-10.9-12.1-10.9H42.7v21.7h19.3
	C69.5,310.3,74.2,306.2,74.2,299.5z M76.2,341.5c0-6.5-4.6-11.8-13.2-11.8H42.7v23.6h20.3C71.2,353.3,76.2,349,76.2,341.5
	L76.2,341.5z M104.7,342.7v-45h19.8v44.4c0,8.9,5.4,15.4,16,15.4c10.4,0,15.9-6.5,15.9-15.4v-44.4h19.8v44.9
	c0,18.8-11.3,32.1-35.6,32.1S104.7,361.4,104.7,342.7z M182.7,372.8V358l33.8-43h-33.8v-17.2h60.7v14.1L209,355.5H244v17.2H182.7z
	 M250.5,372.8V358l33.8-43h-33.8v-17.2h60.7v14.1l-34.5,43.7h35.1v17.2H250.5L250.5,372.8z M319.2,372.8V269.2h71.9v19.4h-49.8v21.7
	h37.5v19.4h-37.5v43H319.2L319.2,372.8z M384.3,335.2c0-21.7,16.2-39.3,38.8-39.3c22.5,0,37.5,16.8,37.5,41.1v4.6h-55.8
	c1.4,9.1,8.9,16.8,21.6,16.8c6.4,0,15-2.7,19.9-7.3l8.9,13.1c-7.5,6.8-19.3,10.4-30.9,10.4C401.5,374.7,384.3,359.3,384.3,335.2z
	 M423.1,312.1c-12.2,0-17.6,8.5-18.4,16h37C441.1,320.9,436.1,312.1,423.1,312.1z M466,335.2c0-21.7,16.2-39.3,38.8-39.3
	c22.5,0,37.5,16.8,37.5,41.1v4.6h-55.8c1.4,9.1,8.9,16.8,21.6,16.8c6.4,0,15-2.7,19.9-7.3l8.9,13.1c-7.5,6.8-19.3,10.4-30.9,10.4
	C483.3,374.7,466,359.3,466,335.2z M504.8,312.1c-12.2,0-17.6,8.5-18.4,16h37C522.8,320.9,517.8,312.1,504.8,312.1z M549.6,372.9
	v-75.3h30.2c23.7,0,40.8,14.2,40.8,37.6c0,23.3-17,37.7-40.6,37.7L549.6,372.9L549.6,372.9z M601.5,335.2c0-11.7-7-21.4-20.8-21.4
	h-12.2v42.8h12.2C593.8,356.7,601.5,346.4,601.5,335.2z"/>
</svg>
